<?xml version="1.0" standalone="no"?>
<!DOCTYPE svg PUBLIC "-//W3C//DTD SVG 20010904//EN"
 "http://www.w3.org/TR/2001/REC-SVG-20010904/DTD/svg10.dtd">
<svg version="1.0" xmlns="http://www.w3.org/2000/svg"
 width="500.000000pt" height="500.000000pt" viewBox="0 0 500.000000 500.000000"
 preserveAspectRatio="xMidYMid meet">

<g transform="translate(0.000000,500.000000) scale(0.100000,-0.100000)"
fill="#000000" stroke="none">
<path d="M1120 4733 c-158 -18 -371 -109 -506 -216 -170 -135 -294 -344 -346
-582 -10 -48 -13 -337 -13 -1440 0 -1527 -4 -1436 64 -1612 53 -135 115 -229
225 -339 110 -110 204 -172 339 -225 176 -68 85 -64 1612 -64 1103 0 1392 3
1440 13 238 52 447 176 582 346 80 100 165 270 195 391 l23 90 0 1395 c0 1327
-1 1399 -19 1475 -60 259 -207 471 -425 614 -94 61 -184 101 -311 135 -74 20
-102 20 -1450 22 -756 0 -1391 -1 -1410 -3z m648 -1278 c1 -203 0 -380 -3
-392 l-5 -23 -275 0 -275 0 0 395 0 395 278 -2 277 -3 3 -370z m1621 356 c118
-23 230 -86 329 -184 72 -71 167 -203 199 -275 29 -69 32 -77 37 -122 2 -25
12 -83 21 -130 10 -54 14 -109 11 -150 -15 -186 -48 -275 -168 -468 l-20 -33
46 -69 c26 -38 56 -93 68 -122 12 -29 25 -57 30 -62 4 -6 8 -31 8 -57 0 -26 4
-50 9 -53 31 -19 31 -412 0 -432 -5 -3 -9 -15 -9 -28 0 -12 -4 -26 -8 -31 -5
-6 -17 -30 -26 -54 -26 -68 -87 -150 -169 -226 -83 -78 -137 -125 -144 -125
-2 0 -34 -18 -70 -40 -42 -25 -79 -40 -99 -40 -18 0 -36 -4 -39 -10 -3 -5 -21
-10 -40 -10 -19 0 -37 -5 -40 -10 -4 -7 -367 -10 -1056 -10 l-1049 0 2 428 3
427 260 3 c143 1 270 0 282 -3 22 -5 23 -10 25 -143 l3 -137 690 -3 c678 -2
691 -2 741 19 57 22 81 46 138 131 38 56 39 59 34 131 -3 41 -10 81 -16 88
-44 55 -75 81 -127 111 l-60 33 -985 0 -985 0 0 290 0 290 970 6 c534 3 986 9
1005 14 49 11 115 59 151 108 55 75 58 87 49 160 -7 55 -15 76 -44 115 -33 43
-53 56 -168 113 -10 5 -309 9 -666 9 -491 0 -651 3 -660 12 -13 13 -18 539 -5
551 4 4 338 6 742 4 545 -3 753 -7 800 -16z"/>
</g>
</svg>
