<?xml version="1.0" standalone="no"?>
<!DOCTYPE svg PUBLIC "-//W3C//DTD SVG 20010904//EN"
 "http://www.w3.org/TR/2001/REC-SVG-20010904/DTD/svg10.dtd">
<svg version="1.0" xmlns="http://www.w3.org/2000/svg"
 width="500.000000pt" height="500.000000pt" viewBox="0 0 500.000000 500.000000"
 preserveAspectRatio="xMidYMid meet">

<g transform="translate(0.000000,500.000000) scale(0.100000,-0.100000)"
fill="#000000" stroke="none">
<path d="M2265 4564 c-352 -51 -654 -163 -921 -342 -113 -77 -265 -200 -272
-222 -2 -6 103 -11 300 -12 l303 -3 0 -455 0 -455 -315 0 -315 0 -3 443 c-1
260 -6 442 -11 442 -19 0 -174 -188 -253 -304 -345 -514 -443 -1150 -269
-1749 53 -183 177 -439 289 -596 72 -101 209 -262 229 -269 10 -3 13 78 15
370 l3 373 325 0 325 0 5 -160 5 -160 798 -3 798 -2 54 26 c67 31 105 69 161
158 37 59 44 77 44 121 0 87 -56 185 -126 222 -22 11 -57 31 -79 44 l-40 24
-1135 0 -1135 0 -3 329 c-2 257 1 331 10 338 7 4 511 8 1120 8 727 0 1109 3
1113 10 3 6 21 10 38 10 52 1 135 60 178 129 20 32 42 62 48 65 6 4 11 37 11
79 0 55 -6 82 -23 114 -24 44 -81 113 -95 113 -4 0 -29 13 -55 30 -26 17 -56
30 -65 30 -10 0 -22 4 -28 10 -6 6 -281 11 -764 12 l-755 3 0 325 0 325 844 3
c557 1 848 -1 855 -8 5 -5 22 -10 37 -10 14 0 39 -4 55 -9 16 -5 49 -15 74
-22 25 -7 63 -25 85 -40 22 -15 56 -34 75 -42 29 -12 207 -186 258 -251 33
-42 114 -184 119 -209 3 -15 10 -30 14 -33 5 -3 9 -31 9 -63 0 -31 5 -62 11
-68 23 -23 36 -260 20 -357 -28 -161 -77 -286 -165 -415 -41 -61 -42 -66 -18
-102 9 -15 34 -52 55 -84 21 -31 47 -82 59 -113 11 -32 24 -61 29 -66 5 -6 9
-33 9 -61 0 -28 5 -56 10 -61 34 -34 33 -370 -2 -499 -19 -71 -84 -210 -127
-270 -45 -62 -265 -265 -288 -265 -6 0 -28 -13 -49 -28 -55 -39 -107 -62 -142
-62 -17 0 -34 -4 -37 -10 -3 -5 -23 -10 -43 -10 -20 -1 -48 -7 -62 -15 -21
-12 -185 -14 -1085 -15 l-1060 -1 29 -23 c38 -32 223 -134 321 -178 482 -216
1077 -231 1578 -37 273 105 509 260 723 473 313 314 505 685 580 1124 33 195
34 479 3 663 -78 460 -271 835 -594 1155 -290 287 -650 477 -1059 561 -117 23
-157 26 -366 29 -129 1 -248 0 -265 -2z"/>
</g>
</svg>
